<svg
   version="1.1"
   id="svg2"
   width="960"
   height="336"
   viewBox="0 0 960 336"
   sodipodiDocname="Gestion-Le-Loup-Logo.ai"
   xmlns="http://www.w3.org/2000/svg"
   xmlnsSvg="http://www.w3.org/2000/svg">
  <defs
     id="defs6">
    <clipPath
       clipPathUnits="userSpaceOnUse"
       id="clipPath28">
      <path
         d="M 0,252 H 720 V 0 H 0 Z"
         id="path26" />
    </clipPath>
  </defs>
  <g
     id="g8"
     transform="matrix(1.3333333,0,0,-1.3333333,0,336)">
    <g
       id="g10"
       transform="translate(36,35.5075)">
      <path
         d="M 0,0 V 100.911 H 24.516 V 21.236 H 63.567 V 0 Z"
         style="fill:#231f20;fill-opacity:1;fill-rule:nonzero;stroke:none"
         id="path12" />
    </g>
    <g
       id="g14"
       transform="translate(110.9687,35.5075)">
      <path
         d="M 0,0 V 100.911 H 67.843 V 80.386 H 23.517 V 61.287 H 65.421 V 41.761 H 23.517 V 20.809 H 70.409 V 0 Z"
         style="fill:#231f20;fill-opacity:1;fill-rule:nonzero;stroke:none"
         id="path16" />
    </g>
    <g
       id="g18"
       transform="translate(233.1147,35.5075)">
      <path
         d="M 0,0 V 100.911 H 24.516 V 21.236 H 63.567 V 0 Z"
         style="fill:#231f20;fill-opacity:1;fill-rule:nonzero;stroke:none"
         id="path20" />
    </g>
    <g
       id="g22">
      <g
         id="g24"
         clip-path="url(#clipPath28)">
        <g
           id="g30"
           transform="translate(592.6962,56.9588)">
          <path
             d="m 0,0 c -2.045,-4.99 -4.966,-9.264 -8.766,-12.829 -3.802,-3.563 -8.387,-6.342 -13.754,-8.337 -5.369,-1.996 -11.33,-2.993 -17.887,-2.993 -6.652,0 -12.637,0.997 -17.959,2.993 -5.322,1.995 -9.834,4.774 -13.54,8.337 -3.705,3.565 -6.555,7.839 -8.551,12.829 -1.996,4.988 -2.994,10.523 -2.994,16.603 v 62.856 h 24.23 v -60.86 c 0,-2.757 0.357,-5.369 1.069,-7.839 0.713,-2.472 1.804,-4.681 3.279,-6.627 1.472,-1.95 3.42,-3.493 5.844,-4.633 2.422,-1.141 5.344,-1.711 8.766,-1.711 3.419,0 6.341,0.57 8.764,1.711 2.424,1.14 4.394,2.683 5.915,4.633 1.519,1.946 2.613,4.155 3.279,6.627 0.662,2.47 0.997,5.082 0.997,7.839 v 60.86 H 3.064 V 16.603 C 3.064,10.523 2.042,4.988 0,0"
             style="fill:#231f20;fill-opacity:1;fill-rule:nonzero;stroke:none"
             id="path32" />
        </g>
        <g
           id="g34"
           transform="translate(659.6278,105.2038)">
          <path
             d="m 0,0 c 0,2.375 -0.476,4.323 -1.425,5.844 -0.951,1.519 -2.233,2.708 -3.848,3.563 -1.617,0.855 -3.445,1.425 -5.488,1.71 -2.044,0.286 -4.157,0.428 -6.342,0.428 h -10.69 v -23.802 h 10.261 c 2.281,0 4.466,0.189 6.557,0.57 2.09,0.378 3.967,1.044 5.63,1.995 1.661,0.949 2.969,2.21 3.92,3.777 C -0.476,-4.347 0,-2.376 0,0 m 24.372,0.143 c 0,-5.893 -1.092,-10.857 -3.277,-14.895 -2.187,-4.039 -5.132,-7.293 -8.838,-9.763 -3.704,-2.472 -7.981,-4.276 -12.827,-5.416 -4.847,-1.141 -9.884,-1.711 -15.108,-1.711 h -12.115 v -38.054 h -24.372 v 100.91 h 37.057 c 5.509,0 10.664,-0.548 15.465,-1.639 4.797,-1.094 8.979,-2.85 12.542,-5.274 3.563,-2.423 6.364,-5.607 8.409,-9.549 2.042,-3.944 3.064,-8.815 3.064,-14.609"
             style="fill:#231f20;fill-opacity:1;fill-rule:nonzero;stroke:none"
             id="path36" />
        </g>
        <g
           id="g38"
           transform="translate(66.2628,193.9088)">
          <path
             d="m 0,0 c -1.299,1.368 -2.842,2.429 -4.631,3.184 -1.79,0.754 -3.843,1.132 -6.159,1.132 -2.386,0 -4.535,-0.438 -6.446,-1.315 -1.914,-0.875 -3.536,-2.058 -4.869,-3.546 -1.334,-1.489 -2.36,-3.214 -3.079,-5.175 -0.719,-1.963 -1.079,-4.029 -1.079,-6.202 0,-2.172 0.36,-4.239 1.079,-6.2 0.719,-1.962 1.745,-3.678 3.079,-5.15 1.333,-1.471 2.955,-2.644 4.869,-3.52 1.911,-0.876 4.06,-1.313 6.446,-1.313 2.106,0 4.035,0.228 5.79,0.684 1.755,0.456 3.175,1.035 4.263,1.736 v 11.316 H -9.421 V -11 H 3.053 v -16.833 c -2.036,-1.231 -4.229,-2.146 -6.58,-2.744 -2.35,-0.597 -4.789,-0.897 -7.315,-0.897 -2.807,0 -5.404,0.492 -7.79,1.474 -2.386,0.982 -4.439,2.342 -6.157,4.079 -1.72,1.737 -3.062,3.797 -4.027,6.184 -0.966,2.386 -1.447,5 -1.447,7.842 0,2.842 0.491,5.456 1.473,7.842 0.983,2.386 2.343,4.448 4.079,6.184 1.737,1.737 3.79,3.097 6.159,4.079 2.367,0.982 4.938,1.474 7.71,1.474 2.982,0 5.579,-0.446 7.789,-1.337 2.211,-0.891 4.106,-2.13 5.685,-3.716 z"
             style="fill:#231f20;fill-opacity:1;fill-rule:nonzero;stroke:none"
             id="path40" />
        </g>
        <g
           id="g42"
           transform="translate(82.7891,166.7511)">
          <path
             d="M 0,0 H 19.948 V -3.369 H -3.79 V 33.894 H 19.316 V 30.526 H 0 V 17.737 H 18.053 V 14.368 L 0,14.368 Z"
             style="fill:#231f20;fill-opacity:1;fill-rule:nonzero;stroke:none"
             id="path44" />
        </g>
        <g
           id="g46"
           transform="translate(128.2096,194.6457)">
          <path
             d="m 0,0 c -0.807,1.123 -1.841,2.026 -3.105,2.71 -1.263,0.685 -2.789,1.027 -4.579,1.027 -0.913,0 -1.842,-0.141 -2.789,-0.421 -0.947,-0.282 -1.808,-0.711 -2.579,-1.29 -0.773,-0.579 -1.396,-1.307 -1.868,-2.184 -0.474,-0.878 -0.711,-1.913 -0.711,-3.106 0,-1.193 0.226,-2.175 0.682,-2.947 0.454,-0.772 1.058,-1.43 1.81,-1.973 0.753,-0.545 1.61,-0.992 2.573,-1.343 0.962,-0.35 1.968,-0.702 3.018,-1.052 1.294,-0.421 2.597,-0.877 3.91,-1.368 1.312,-0.492 2.493,-1.133 3.542,-1.922 1.05,-0.789 1.908,-1.789 2.572,-2.999 0.665,-1.211 0.998,-2.746 0.998,-4.606 0,-1.86 -0.355,-3.465 -1.064,-4.816 -0.709,-1.351 -1.631,-2.465 -2.763,-3.342 -1.134,-0.877 -2.428,-1.526 -3.884,-1.947 -1.455,-0.421 -2.921,-0.632 -4.395,-0.632 -1.122,0 -2.245,0.115 -3.367,0.343 -1.124,0.227 -2.194,0.57 -3.211,1.026 -1.019,0.455 -1.966,1.034 -2.843,1.737 -0.876,0.701 -1.649,1.508 -2.315,2.42 l 3.263,2.421 c 0.806,-1.334 1.939,-2.447 3.394,-3.342 1.456,-0.894 3.167,-1.341 5.132,-1.341 0.948,0 1.912,0.148 2.895,0.447 0.982,0.297 1.868,0.754 2.658,1.368 0.789,0.614 1.438,1.369 1.947,2.264 0.509,0.894 0.763,1.938 0.763,3.131 0,1.298 -0.254,2.376 -0.763,3.237 -0.509,0.859 -1.183,1.579 -2.026,2.158 -0.842,0.579 -1.808,1.06 -2.895,1.447 -1.088,0.386 -2.229,0.771 -3.421,1.158 -1.228,0.386 -2.439,0.824 -3.631,1.316 -1.194,0.491 -2.264,1.131 -3.211,1.921 -0.948,0.789 -1.71,1.763 -2.289,2.921 -0.579,1.158 -0.868,2.579 -0.868,4.263 0,1.789 0.358,3.333 1.078,4.631 0.719,1.298 1.658,2.369 2.816,3.211 1.158,0.842 2.438,1.456 3.842,1.842 1.403,0.386 2.789,0.579 4.158,0.579 C -5,6.947 -2.841,6.5 -1.053,5.605 0.737,4.711 2.087,3.649 3,2.421 Z"
             style="fill:#231f20;fill-opacity:1;fill-rule:nonzero;stroke:none"
             id="path48" />
        </g>
        <g
           id="g50"
           transform="translate(150.842,163.3823)">
          <path
             d="m 0,0 h -3.79 v 33.895 h -12.473 v 3.368 H 12.474 V 33.895 H 0 Z"
             style="fill:#231f20;fill-opacity:1;fill-rule:nonzero;stroke:none"
             id="path52" />
        </g>
        <path
           d="m 172.684,163.382 h -3.79 v 37.263 h 3.79 z"
           style="fill:#231f20;fill-opacity:1;fill-rule:nonzero;stroke:none"
           id="path54" />
        <g
           id="g56"
           transform="translate(215.4207,181.9873)">
          <path
             d="m 0,0 c 0,2.172 -0.351,4.239 -1.053,6.201 -0.702,1.961 -1.72,3.686 -3.053,5.175 -1.334,1.489 -2.956,2.671 -4.868,3.547 -1.914,0.876 -4.062,1.314 -6.448,1.314 -2.386,0 -4.535,-0.438 -6.447,-1.314 -1.913,-0.876 -3.535,-2.058 -4.868,-3.547 C -28.071,9.887 -29.089,8.162 -29.79,6.201 -30.493,4.239 -30.843,2.172 -30.843,0 c 0,-2.172 0.35,-4.239 1.053,-6.201 0.701,-1.961 1.719,-3.678 3.053,-5.15 1.333,-1.47 2.955,-2.643 4.868,-3.52 1.912,-0.875 4.061,-1.313 6.447,-1.313 2.386,0 4.534,0.438 6.448,1.313 1.912,0.877 3.534,2.05 4.868,3.52 1.333,1.472 2.351,3.189 3.053,5.15 C -0.351,-4.239 0,-2.172 0,0 m 3.999,0.027 c 0,-2.843 -0.492,-5.456 -1.473,-7.842 -0.983,-2.387 -2.342,-4.448 -4.079,-6.185 -1.737,-1.737 -3.789,-3.097 -6.158,-4.079 -2.369,-0.981 -4.939,-1.473 -7.711,-1.473 -2.772,0 -5.342,0.492 -7.71,1.473 -2.369,0.982 -4.422,2.342 -6.159,4.079 -1.736,1.737 -3.096,3.798 -4.079,6.185 -0.981,2.386 -1.472,4.999 -1.472,7.842 0,2.841 0.491,5.455 1.472,7.842 0.983,2.385 2.343,4.447 4.079,6.184 1.737,1.737 3.79,3.096 6.159,4.079 2.368,0.982 4.938,1.474 7.71,1.474 2.772,0 5.342,-0.492 7.711,-1.474 2.369,-0.983 4.421,-2.342 6.158,-4.079 C 0.184,12.316 1.543,10.254 2.526,7.869 3.507,5.482 3.999,2.868 3.999,0.027"
             style="fill:#231f20;fill-opacity:1;fill-rule:nonzero;stroke:none"
             id="path58" />
        </g>
        <g
           id="g60"
           transform="translate(253.735,168.9082)">
          <path
             d="m 0,0 h 0.105 v 31.737 h 3.79 V -5.526 h -4.737 l -21.684,32.053 h -0.105 V -5.526 h -3.79 v 37.263 h 4.737 z"
             style="fill:#231f20;fill-opacity:1;fill-rule:nonzero;stroke:none"
             id="path62" />
        </g>
        <g
           id="g64"
           transform="translate(326.6976,145.4553)">
          <path
             d="m 0,0 c -0.522,1.312 -1.023,2.584 -1.532,3.826 -1.188,-3.813 -3.25,-6.613 -5.136,-10.193 -2.159,5.932 -3.419,12.802 -1.371,19.857 -4.962,-3.3 -6.857,-8.306 -7.927,-11.588 -4.265,7.629 -3.758,17.549 0.155,24.969 C -7.167,18.988 1.446,16.462 11.669,13.874 7.975,10.943 3.026,6.178 0,0 m 132.141,25.01 c 0.306,5.261 -5.174,10.38 -11.185,10.735 -1.926,0.118 -6.305,-0.558 -11.179,-2.156 -7.344,-2.453 -15.969,-4.74 -23.959,-5.614 -9.568,-1.054 -18.73,0.134 -30.024,8.043 -50.693,-24.321 -40.96,-3.615 -79.253,0.943 -8.207,-21.64 -2.268,-41.672 17.037,-48.979 -7.721,-8.425 -11.646,-21.354 -11.646,-21.354 2.746,2.171 7.695,5.076 12.982,7.653 -2.93,-6.541 -12.633,-24.071 -8.093,-43.87 3.657,11.35 11.281,19.421 11.281,19.421 -15.064,-32.537 3.348,-57.381 3.348,-57.381 -2.018,21.565 3.027,31.295 3.027,31.295 l 16.773,-41.762 c 0.882,51.075 22.897,66.494 31.654,70.622 -15.69,0.894 -32.715,-10.557 -37.408,-26.29 -10.255,11.432 -4.216,37.112 13.381,43.945 -3.08,-3.106 -5.593,-9.231 -5.671,-13.461 15.78,10.94 37.806,-2.891 56.244,11.309 -8.147,-2.822 -19.124,1.774 -28.154,4.353 3.273,1.457 6.967,2.76 10.446,3.66 -12.167,5.435 -29.984,8.065 -42.277,4.567 7.865,6.49 17.495,9.852 17.495,9.852 -14.782,11.164 -11.471,21.014 4.292,28.404 3.528,1.65 7.252,2.945 9.696,3.011 1.909,0.053 4.177,-0.263 7.976,-0.684 7.104,-0.832 12.579,-1.2 17.239,-1.169 -4.396,-2.365 -8.981,-4.81 -10.534,-5.595 -2.413,-1.238 -6.414,-0.361 -10.165,0.345 -5.432,0.987 -9.35,-0.983 -13.768,-3.774 0,0 4.726,-1.715 7.797,-2.825 4.655,-1.728 10.324,-2.815 17.339,1.858 5.238,3.453 11.955,7.315 17.759,10.54 9.147,1.208 16.798,4.271 33.282,8.367 3.649,0.917 5.83,-0.403 7.296,-3.878 -1.461,1.048 -5.524,1.478 -8.683,1.118 -6.59,-0.742 -4.878,-7.775 -3.338,-8.547 1.664,-0.807 2.343,3.317 3.791,2.571 1.448,-0.745 -0.262,-4.664 0.676,-5.773 1.87,-2.213 7.42,2.709 7.262,-0.844 -0.373,-8.378 -13.911,-21.593 -14.214,-21.839 -4.26,1.483 -15.734,2.031 -23.403,-0.628 0,0 2.204,-0.937 2.911,-2.534 0.728,-1.637 2.023,-4.431 3.032,-4.155 0.601,0.127 7.593,2.306 16.971,-1.525 2.475,-1.011 2.198,-5.212 2.198,-5.212 0,0 -1.553,1.54 -6.801,2.939 -5.238,1.43 -7.441,-0.698 -7.441,-0.698 0,0 5.156,-1.14 7.661,-2.255 2.497,-1.144 4.41,-4.913 0.401,-10.577 -1.049,-1.462 -4.341,-2.97 -5.495,-3.452 -10.483,-4.379 -26.428,-8.05 -35.863,-17.036 -0.58,3.054 1.69,7.005 1.69,7.005 -3.952,-1.513 -9.164,-12.443 -9.164,-12.443 -0.841,3.376 0.588,9.419 0.588,9.419 -6.659,-4.359 -9.864,-17.651 -11.083,-21.061 -1.102,8.354 2.135,17.129 2.135,17.129 -19.664,-19.299 -10.028,-45.536 9.808,-58.78 3.255,-3.102 7.516,-5.919 12.944,-8.34 -5.036,31.566 3.342,66.688 35.261,80.083 1.74,0.73 3.369,1.329 4.584,2.676 4.023,4.432 7.225,10.527 6.676,14.537 -0.377,2.632 -2.203,8.8 -3.261,12.192 2.158,2.672 8.389,9.672 10.537,12.702 4.137,5.838 6.246,17.915 6.592,23.197"
             style="fill:#231f20;fill-opacity:1;fill-rule:nonzero;stroke:none"
             id="path66" />
        </g>
        <g
           id="g68"
           transform="translate(427.1508,223.1631)">
          <path
             d="m 0,0 c 51.505,-14.709 81.354,-68.377 66.636,-119.913 -12.069,-42.26 -50.394,-69.914 -92.179,-70.371 35.34,4.523 66.32,29.491 76.723,65.916 13.937,48.803 -14.323,99.658 -63.126,113.596 -36.456,10.411 -74.019,-2.712 -96.523,-30.333 C -86.005,-5.832 -42.291,12.078 0,0"
             style="fill:#231f20;fill-opacity:1;fill-rule:nonzero;stroke:none"
             id="path70" />
        </g>
      </g>
    </g>
  </g>
</svg>
